<svg id="SvgjsSvg1001" width="288" height="288" xmlns="http://www.w3.org/2000/svg" version="1.1" xmlns:xlink="http://www.w3.org/1999/xlink" xmlns:svgjs="http://svgjs.com/svgjs"><defs id="SvgjsDefs1002"></defs><g id="SvgjsG1008" transform="matrix(1,0,0,1,0,0)"><svg xmlns="http://www.w3.org/2000/svg" width="288" height="288" enable-background="new 0 0 100 100" viewBox="0 0 100 100"><circle cx="50.041" cy="53.256" r="9.513" fill="#000000" class="color000 svgShape"></circle><path d="M86.778,24.2v-0.037H70.111v-2.792c0-2.056-1.667-3.722-3.722-3.722H33.611c-2.056,0-3.723,1.666-3.723,3.722v2.792H13.221
		V24.2c-2.056,0-3.721,1.666-3.721,3.722v50.669c0,2.056,1.665,3.722,3.721,3.722v0.037h73.557v-0.037
		c2.055,0,3.722-1.667,3.722-3.722V27.922C90.5,25.866,88.833,24.2,86.778,24.2z M50.247,72.542
		c-10.651,0-19.286-8.634-19.286-19.286c0-10.651,8.635-19.286,19.286-19.286c10.652,0,19.287,8.635,19.287,19.286
		C69.535,63.908,60.899,72.542,50.247,72.542z M85.513,39.145H70.773v-9.957h14.739V39.145z" fill="#000000" class="color000 svgShape"></path></svg></g></svg>