<svg id="SvgjsSvg1025" width="288" height="288" xmlns="http://www.w3.org/2000/svg" version="1.1" xmlns:xlink="http://www.w3.org/1999/xlink" xmlns:svgjs="http://svgjs.com/svgjs"><circle id="SvgjsCircle1030" r="144" cx="144" cy="144" fill="#00ff46" transform="matrix(0.84,0,0,0.84,23.040000000000006,23.040000000000006)"></circle><defs id="SvgjsDefs1026"></defs><g id="SvgjsG1027" transform="matrix(0.7,0,0,0.7,43.20042343139649,43.19999771118165)"><svg xmlns="http://www.w3.org/2000/svg" width="288" height="288" enable-background="new 0 0 100 100" viewBox="0 0 100 100"><path d="M84.437,39.721l-24.164,0l0-24.158c0-1.001-0.812-1.812-1.812-1.813L41.536,13.75c-1.001,0-1.812,0.812-1.812,1.813
	l-0.001,24.16l-24.159-0.001c-0.961,0-1.812,0.851-1.813,1.813l0,16.925c-0.001,0.481,0.191,0.943,0.531,1.282
	c0.339,0.339,0.801,0.531,1.282,0.53h24.16v24.165c0,0.48,0.191,0.942,0.531,1.282c0.34,0.34,0.802,0.531,1.282,0.531L58.46,86.25
	c0.48,0,0.943-0.192,1.284-0.533c0.338-0.338,0.529-0.8,0.529-1.28V60.273l24.163-0.001c0.5,0,0.953-0.202,1.282-0.53
	c0.329-0.329,0.531-0.782,0.531-1.283l0.001-16.925C86.25,40.533,85.439,39.722,84.437,39.721z" fill="#ffffff" class="color000 svgShape"></path></svg></g></svg>